<svg width="35" height="35" viewBox="0 0 35 35" fill="none" xmlns="http://www.w3.org/2000/svg">
<path d="M17.5008 10.397C17.5025 9.97003 17.156 9.62353 16.729 9.62528L12.0723 9.64628C11.451 9.6489 11.1421 10.3997 11.5814 10.8389L16.2863 15.5438C16.7255 15.983 17.4763 15.6742 17.4789 15.0529L17.5008 10.397Z" fill="#004DFF"/>
<path opacity="0.35" d="M12.2508 26.25H10.5008C9.53391 26.25 8.75078 25.4669 8.75078 24.5V23.625C8.75078 22.6581 9.53391 21.875 10.5008 21.875H12.2508C13.2177 21.875 14.0008 22.6581 14.0008 23.625V24.5C14.0008 25.4669 13.2177 26.25 12.2508 26.25Z" fill="#004DFF"/>
<path opacity="0.35" d="M18.3752 26.2496H16.6252C15.6583 26.2496 14.8752 25.4665 14.8752 24.4996V19.2496C14.8752 18.2827 15.6583 17.4996 16.6252 17.4996H18.3752C19.342 17.4996 20.1251 18.2827 20.1251 19.2496V24.4996C20.1251 25.4665 19.342 26.2496 18.3752 26.2496Z" fill="#004DFF"/>
<path opacity="0.35" d="M24.4995 26.2503H22.7495C21.7826 26.2503 20.9995 25.4671 20.9995 24.5003V11.3753C20.9995 10.4084 21.7826 9.62527 22.7495 9.62527H24.4995C25.4664 9.62527 26.2495 10.4084 26.2495 11.3753V24.5003C26.2495 25.4671 25.4664 26.2503 24.4995 26.2503Z" fill="#004DFF"/>
<circle cx="26.2512" cy="10" r="3.43906" fill="#FFC533" stroke="white" stroke-width="0.621875"/>
<path d="M10.3061 18.3748C9.90797 18.3748 9.50984 18.2225 9.20622 17.9189C8.59897 17.3117 8.59897 16.3264 9.20622 15.7192L13.0947 11.8307C13.702 11.2234 14.6872 11.2234 15.2945 11.8307C15.9017 12.4379 15.9017 13.4232 15.2945 14.0304L11.406 17.9189C11.1023 18.2225 10.7042 18.3748 10.3061 18.3748Z" fill="#004DFF"/>
</svg>
